<?xml version="1.0" encoding="UTF-8" standalone="no"?>
<!-- Created with Inkscape (http://www.inkscape.org/) -->

<svg
   version="1.1"
   id="svg1"
   width="331.1506"
   height="242.66393"
   viewBox="0 0 331.1506 242.66392"
   sodipodi:docname="Screenshot 2025-04-10 at 3.59.20 PM.png"
   inkscape:export-filename="/Users/gito/Desktop/logo.png"
   inkscape:export-xdpi="96"
   inkscape:export-ydpi="96"
   xmlns:inkscape="http://www.inkscape.org/namespaces/inkscape"
   xmlns:sodipodi="http://sodipodi.sourceforge.net/DTD/sodipodi-0.dtd"
   xmlns:xlink="http://www.w3.org/1999/xlink"
   xmlns="http://www.w3.org/2000/svg"
   xmlns:svg="http://www.w3.org/2000/svg">
  <defs
     id="defs1">
    <linearGradient
       id="linearGradient8"
       inkscape:collect="always">
      <stop
         style="stop-color:#ffffff;stop-opacity:1;"
         offset="0.07216495"
         id="stop8" />
      <stop
         style="stop-color:#ffffff;stop-opacity:0;"
         offset="1"
         id="stop9" />
    </linearGradient>
    <linearGradient
       id="linearGradient5"
       inkscape:collect="always">
      <stop
         style="stop-color:#393939;stop-opacity:1;"
         offset="0"
         id="stop6" />
      <stop
         style="stop-color:#a939b9;stop-opacity:1;"
         offset="1"
         id="stop7" />
    </linearGradient>
    <linearGradient
       id="linearGradient4"
       inkscape:collect="always">
      <stop
         style="stop-color:#ff0000;stop-opacity:1;"
         offset="0"
         id="stop4" />
      <stop
         style="stop-color:#ff0000;stop-opacity:0;"
         offset="1"
         id="stop5" />
    </linearGradient>
    <radialGradient
       inkscape:collect="always"
       xlink:href="#linearGradient4"
       id="radialGradient5"
       cx="236.7364"
       cy="169.73924"
       fx="236.7364"
       fy="169.73924"
       r="90.233742"
       gradientTransform="matrix(1.730388,-0.0056833,0.00788974,2.4021779,-144.52046,-226.85876)"
       gradientUnits="userSpaceOnUse" />
    <linearGradient
       inkscape:collect="always"
       xlink:href="#linearGradient5"
       id="linearGradient7"
       x1="-71.246033"
       y1="133.39526"
       x2="360.87881"
       y2="116.22278"
       gradientUnits="userSpaceOnUse"
       gradientTransform="translate(29.728182,9.8004238)" />
    <radialGradient
       inkscape:collect="always"
       xlink:href="#linearGradient8"
       id="radialGradient9"
       cx="102.27083"
       cy="70.773109"
       fx="102.27083"
       fy="70.773109"
       r="18.604725"
       gradientTransform="matrix(3.2521623,0,0,0.84375467,-200.60233,20.858393)"
       gradientUnits="userSpaceOnUse" />
  </defs>
  <sodipodi:namedview
     id="namedview1"
     pagecolor="#505050"
     bordercolor="#ffffff"
     borderopacity="1"
     inkscape:showpageshadow="0"
     inkscape:pageopacity="0"
     inkscape:pagecheckerboard="1"
     inkscape:deskcolor="#505050">
    <inkscape:page
       x="0"
       y="0"
       width="331.1506"
       height="242.66393"
       id="page2"
       margin="0"
       bleed="0" />
  </sodipodi:namedview>
  <g
     inkscape:groupmode="layer"
     inkscape:label="Image"
     id="g1"
     transform="translate(-29.728182,-9.8004238)">
    <path
       style="fill:url(#radialGradient5);stroke:none"
       d="m 229.51713,245.63102 c -6.41258,-6.23827 -11.72152,-11.08433 -18.86636,-17.22144 -1.45899,-1.25321 -3.58093,-3.17856 -4.71542,-4.27856 -1.13448,-1.1 -4.40483,-4.1 -7.26745,-6.66667 -7.516,-6.73897 -24.88484,-24.49808 -29.66675,-30.33333 -2.25359,-2.75 -4.50026,-5.4908 -4.9926,-6.09066 -3.00521,-3.66147 -8.16183,-12.13719 -10.78903,-17.73345 -1.68069,-3.58007 -3.32435,-7.03016 -3.65258,-7.66685 -0.32823,-0.63669 -0.59678,-1.70169 -0.59678,-2.36666 0,-0.66498 -0.26927,-1.49405 -0.59838,-1.84238 -1.57574,-1.66778 -2.49555,-17.73785 -1.37179,-23.96667 0.46306,-2.56667 1.09578,-4.95167 1.40605,-5.3 0.31027,-0.34834 0.56412,-1.17741 0.56412,-1.84238 0,-0.66498 0.26717,-1.72998 0.59371,-2.36667 0.32654,-0.63669 1.30154,-2.64599 2.16666,-4.46511 4.78682,-10.06533 15.97494,-19.925414 26.9063,-23.712503 4.42244,-1.532127 6.37874,-1.98316 8.71399,-2.009045 1.44063,-0.01597 3.84084,-0.265904 5.33379,-0.555412 2.95655,-0.573325 11.70133,0.158877 15.95221,1.335682 9.73069,2.693827 18.3211,7.695674 24.81307,14.447658 1.54718,1.60915 3.10214,2.82269 3.45546,2.69676 0.35331,-0.12594 2.38918,-1.91085 4.52414,-3.96646 5.46804,-5.264814 15.20986,-11.262527 18.2932,-11.262527 0.64283,0 1.35418,-0.3 1.5808,-0.666667 0.22661,-0.366666 1.09431,-0.666666 1.92823,-0.666666 0.83392,0 1.73832,-0.225 2.00978,-0.5 0.27146,-0.275 3.36724,-0.814738 6.87952,-1.199418 7.27272,-0.796539 16.2969,0.03218 21.84913,2.006473 4.6644,1.658592 11.71983,5.306591 13.47213,6.965741 0.80967,0.76663 1.65414,1.39387 1.87661,1.39387 0.86394,0 8.9846,8.931704 8.9846,9.881914 0,0.29334 0.53481,1.11491 1.18848,1.82572 4.05852,4.4133 7.47818,16.74025 7.47818,26.95682 0,12.16319 -2.56964,20.29329 -11.22011,35.49938 -1.528,2.68598 -8.48468,11.91035 -13.41318,17.78553 -6.02772,7.18553 -27.5625,28.07331 -42.01994,40.75748 -8.7205,7.65089 -10.35833,9.17311 -16.99266,15.79317 -3.39898,3.39166 -6.31561,6.16666 -6.48141,6.16666 -0.1658,0 -3.46237,-3.075 -7.32572,-6.83333 z"
       id="path1"
       sodipodi:nodetypes="sssssssssssssscssssssssssssssssssssssss" />
    <path
       style="fill:url(#linearGradient7)"
       d="m 301.11332,222.58157 c -1.31115,-0.18599 -0.1221,-1.66194 8.53051,-10.58886 30.86418,-31.84263 43.35791,-55.39048 43.3119,-81.63308 -0.0302,-17.20966 -5.41378,-31.286104 -16.5641,-43.309985 -8.41331,-9.072439 -18.63977,-15.224965 -30.52013,-18.361769 -5.65711,-1.493662 -7.95489,-1.736178 -16.56801,-1.748652 -8.67171,-0.01256 -10.85948,0.214506 -16.47054,1.709445 -11.93436,3.179635 -23.17551,9.510786 -31.69931,17.853419 l -4.16984,4.08122 -4.78711,-4.432134 C 210.20563,65.809339 180.02319,60.932041 154.63683,73.621208 128.15028,86.860293 114.95859,117.20732 122.3927,147.79768 c 4.85882,19.99339 17.53696,39.50925 42.55092,65.5 l 8.82217,9.16667 h -65.41923 c -54.628321,0 -65.788434,-0.15426 -67.657523,-0.93522 -3.10558,-1.29759 -7.53426,-5.44853 -9.267157,-8.68597 l -1.451722,-2.71214 -0.177899,-75.29416 c -0.160832,-68.070515 -0.0738,-75.607567 0.907119,-78.560847 2.172869,-6.541897 8.06096,-11.057024 15.103853,-11.581992 7.148846,-0.532865 6.936333,-0.396028 7.745014,-4.986989 0.779393,-4.424681 1.794795,-5.956328 5.421914,-8.17849 5.277539,-3.233295 11.972231,-4.390585 25.333335,-4.379293 9.889217,0.0084 17.444476,0.751499 20.999996,2.065576 7.66562,2.833118 9.6363,4.688178 10.58722,9.966047 0.23615,1.310759 1.03733,3.035759 1.78038,3.833333 l 1.35101,1.450136 h 42.26802 c 24.49216,0 42.42478,-0.253655 42.64078,-0.603151 0.20502,-0.331733 1.45518,-6.106733 2.77813,-12.833334 2.5697,-13.065754 3.09082,-14.564951 6.03494,-17.361484 4.18761,-3.9777002 2.74338,-3.8690422 51.37144,-3.8649812 29.28761,0.0024 45.39164,0.2453702 47.0647,0.7099552 1.39881,0.388431 3.70142,1.864371 5.11692,3.279867 2.65618,2.656184 3.8015,5.576122 5.36318,13.673128 1.71619,8.898162 2.11739,10.792349 2.89469,13.666667 l 0.8113,3 11.63531,0.333333 c 11.15867,0.319678 11.76129,0.407393 14.71054,2.141185 4.08905,2.403846 6.87309,5.68893 8.19555,9.670487 0.98092,2.95328 1.06795,10.490332 0.90712,78.560847 l -0.1779,75.29416 -1.44158,2.66666 c -1.51723,2.80661 -4.54403,5.8928 -7.89175,8.04661 -1.85056,1.19058 -3.74351,1.31164 -25.33334,1.62006 -12.83333,0.18334 -24.01891,0.23608 -24.85683,0.11722 z"
       id="path2"
       sodipodi:nodetypes="sssssssscsssscssscssssscssscssssssssscsssscssss" />
    <path
       style="fill:url(#radialGradient9);fill-opacity:1"
       d="m 111.22615,82.982794 c 3.78318,-1.123483 8.73095,-6.129685 9.35716,-9.467671 0.85599,-4.5628 -0.12449,-7.626946 -3.52345,-11.011277 -1.8653,-1.857275 -4.17711,-3.399332 -5.83371,-3.891289 -3.45794,-1.026894 -14.283212,-1.059986 -17.641134,-0.05393 -5.256598,1.574915 -9.918906,7.327788 -9.918906,12.239047 0,4.728819 4.306574,10.239895 9.463302,12.110088 2.894185,1.049635 14.650738,1.098378 18.096738,0.07503 z"
       id="path4"
       sodipodi:nodetypes="sssssssss" />
  </g>
</svg>
